<svg width="1835" height="1955" viewBox="0 0 1835 1955" fill="none" xmlns="http://www.w3.org/2000/svg">
<path fill-rule="evenodd" clip-rule="evenodd" d="M1668 114.012C1668 51.0514 1616.96 0.0118408 1554 0.0118408H1368C1305.04 0.0118408 1254 51.0513 1254 114.012L1254 970.01L1668 970.01L1668 114.012ZM114.004 970.01C51.0435 970.01 0.00390625 1021.05 0.00390625 1084.01V1841.01C0.00390625 1903.97 51.0434 1955.01 114.004 1955.01H1721C1783.96 1955.01 1835 1903.97 1835 1841.01V1084.01C1835 1021.05 1783.96 970.01 1721 970.01H114.004ZM467 0.0118408C529.96 0.0118408 581 51.0514 581 114.012L581 970.01L167.004 970.01V114.012C167.004 51.0513 218.043 0.0118408 281.004 0.0118408H467ZM1408.81 1353.03L1516.26 1245.58C1531.49 1230.35 1556.18 1230.35 1571.41 1245.58C1586.64 1260.81 1586.64 1285.5 1571.41 1300.73L1463.96 1408.19L1571.41 1515.64C1586.64 1530.87 1586.64 1555.56 1571.41 1570.79C1556.18 1586.02 1531.49 1586.02 1516.26 1570.79L1408.81 1463.34L1301.36 1570.79C1286.13 1586.02 1261.43 1586.02 1246.2 1570.79C1230.97 1555.56 1230.97 1530.87 1246.2 1515.64L1353.65 1408.19L1246.2 1300.74C1230.97 1285.5 1230.97 1260.81 1246.2 1245.58C1261.43 1230.35 1286.13 1230.35 1301.36 1245.58L1408.81 1353.03ZM587.801 1245.58C572.571 1230.35 547.877 1230.35 532.647 1245.58L425.197 1353.03L317.746 1245.58C302.516 1230.35 277.822 1230.35 262.592 1245.58C247.361 1260.81 247.361 1285.5 262.592 1300.74L370.042 1408.19L262.592 1515.64C247.361 1530.87 247.361 1555.56 262.592 1570.79C277.822 1586.02 302.516 1586.02 317.746 1570.79L425.197 1463.34L532.647 1570.79C547.877 1586.02 572.571 1586.02 587.801 1570.79C603.032 1555.56 603.032 1530.87 587.801 1515.64L480.351 1408.19L587.801 1300.73C603.032 1285.5 603.032 1260.81 587.801 1245.58ZM968.117 1566.37C975.291 1559.19 986.923 1559.19 994.097 1566.37C1001.27 1573.54 1001.27 1585.17 994.097 1592.35L943.482 1642.96L994.097 1693.58C1001.27 1700.75 1001.27 1712.38 994.097 1719.56C986.923 1726.73 975.291 1726.73 968.117 1719.56L917.502 1668.94L866.887 1719.56C859.713 1726.73 848.081 1726.73 840.907 1719.56C833.732 1712.38 833.732 1700.75 840.907 1693.58L891.521 1642.96L840.907 1592.35C833.732 1585.17 833.732 1573.54 840.907 1566.37C848.081 1559.19 859.713 1559.19 866.887 1566.37L917.502 1616.98L968.117 1566.37Z" fill="white"/>
</svg>
